# xmcd CD database file
#
# Track frame offsets:
#	175
#	14390
#	26772
#	43050
#	60585
#	74017
#	87595
#	99750
#	116995
#	130672
#
# Disc length: 1946 seconds
#
# Revision: 2
# Processed by: cddbd v1.5.1PL0 Copyright (c) Steve Scherf et al.
# Submitted via: CDex 1.51
#
DISCID=8907980a
DTITLE=Roger Whittaker - You Deserve The Best
DYEAR=1990
DGENRE=
TTITLE0=Good Old Love
TTITLE1=You Deserve The Best
TTITLE2=Take Away My Pain
TTITLE3=A Little Love (Can Go A Long Way)
TTITLE4=The Only Real Hero
TTITLE5=I Have You
TTITLE6=Early Morning Memories
TTITLE7=Good Old E.A.R. and H.
TTITLE8=Like A Stone
TTITLE9=One Song
EXTD=YEAR: 1990
EXTT0=
EXTT1=
EXTT2=
EXTT3=
EXTT4=
EXTT5=
EXTT6=
EXTT7=
EXTT8=
EXTT9=
PLAYORDER=
